<?xml version="1.0" standalone="no"?>
<!DOCTYPE svg PUBLIC "-//W3C//DTD SVG 20010904//EN"
 "http://www.w3.org/TR/2001/REC-SVG-20010904/DTD/svg10.dtd">
<svg version="1.0" xmlns="http://www.w3.org/2000/svg"
 width="1086.000000pt" height="1245.000000pt" viewBox="0 0 1086.000000 1245.000000"
 preserveAspectRatio="xMidYMid meet">
<metadata>
Created by FOSSASIA
</metadata>
<g transform="translate(0.000000,1245.000000) scale(0.100000,-0.100000)"
fill="#000000" stroke="none">
<path d="M4640 12439 c-1426 -92 -3113 -555 -4413 -1211 -191 -97 -241 -128
-226 -142 2 -2 108 11 234 29 433 62 875 105 1415 137 288 17 1331 17 1580 0
1096 -76 1873 -234 2630 -534 125 -49 468 -221 631 -315 370 -215 724 -533
983 -882 284 -383 583 -1060 690 -1563 53 -249 58 -316 53 -658 -4 -265 -7
-318 -26 -400 -114 -508 -315 -869 -683 -1225 -157 -153 -226 -202 -445 -320
-90 -47 -163 -89 -163 -91 0 -24 25 -44 53 -44 99 0 674 166 1027 297 1073
397 1909 948 2376 1565 253 333 413 702 481 1103 28 170 26 602 -5 780 -71
414 -234 856 -471 1280 -364 650 -1008 1166 -1981 1588 -790 342 -1635 529
-2750 607 -167 11 -806 11 -990 -1z"/>
<path d="M3819 10845 c-498 -32 -842 -111 -1223 -281 -223 -100 -471 -251
-636 -390 -166 -139 -381 -362 -539 -559 -362 -450 -680 -1179 -854 -1960 -67
-299 -120 -621 -148 -900 -15 -152 -14 -887 1 -1125 57 -898 353 -2064 777
-3058 85 -200 223 -496 292 -627 26 -49 53 -106 61 -125 7 -19 48 -96 90 -170
42 -74 125 -220 184 -325 191 -338 325 -517 493 -660 75 -64 113 -81 113 -49
0 27 118 -45 192 -118 38 -38 71 -68 73 -68 14 0 0 31 -44 94 -57 84 -81 129
-81 153 0 13 3 14 12 5 17 -17 47 -15 54 3 9 23 -25 112 -55 144 -15 16 -25
34 -23 40 2 6 -9 22 -23 37 -15 15 -34 50 -42 78 -8 28 -26 72 -39 98 -30 58
-30 58 0 58 41 0 74 -18 90 -47 16 -30 105 -124 203 -213 33 -30 93 -100 133
-155 98 -133 167 -219 270 -339 47 -54 118 -139 158 -190 41 -50 97 -115 125
-143 44 -45 57 -53 88 -53 40 0 99 39 99 66 0 8 -26 42 -59 77 -32 34 -88 99
-125 144 -36 46 -95 119 -131 163 -61 75 -122 177 -112 186 2 3 23 -11 47 -31
47 -39 48 -39 101 -24 34 11 46 9 119 -21 53 -21 88 -42 103 -61 69 -92 56
-86 116 -52 2 1 -23 33 -56 70 -64 73 -143 176 -143 186 0 12 35 -6 63 -32 38
-34 147 -187 159 -222 13 -36 41 -45 87 -26 20 8 44 18 53 21 23 7 13 33 -15
42 -12 4 -45 31 -74 61 -49 50 -52 55 -41 79 12 25 9 29 -56 88 -65 59 -68 63
-55 84 13 21 12 25 -11 42 -14 11 -51 33 -83 51 -32 17 -61 38 -63 47 -3 10
-10 24 -15 32 -5 8 -19 29 -30 46 -11 18 -29 34 -39 37 -11 3 -23 13 -26 24
-19 59 -32 80 -86 136 -40 42 -73 89 -100 145 -21 46 -37 86 -34 89 11 11 64
-19 97 -55 44 -47 103 -120 159 -197 24 -33 57 -73 72 -90 15 -16 28 -34 28
-38 0 -5 51 -61 113 -125 65 -68 118 -132 126 -152 46 -125 115 -220 219 -300
36 -28 68 -50 72 -50 4 0 26 17 49 39 38 35 41 41 31 65 -5 15 -10 52 -10 83
l0 56 21 -19 c11 -10 28 -31 37 -46 32 -54 48 -36 58 68 5 47 13 71 27 84 17
17 18 24 9 62 -6 24 -14 76 -18 117 -5 60 -12 79 -34 105 -38 44 -50 70 -50
109 0 18 -16 70 -35 114 -33 77 -45 133 -27 133 13 0 47 -41 64 -75 8 -16 20
-39 26 -50 7 -11 17 -33 22 -49 10 -26 14 -28 49 -23 48 6 74 -17 95 -84 7
-24 29 -70 49 -102 35 -58 57 -130 57 -188 0 -64 22 -117 69 -170 57 -64 76
-62 85 8 6 46 4 60 -36 191 -11 37 -10 44 2 52 26 17 35 11 60 -42 14 -29 31
-54 37 -56 38 -11 41 142 4 213 -12 21 -21 53 -21 70 0 16 -11 53 -25 80 -28
58 -34 139 -10 149 22 8 19 18 -36 113 -87 151 -383 749 -471 953 -302 693
-494 1329 -617 2040 -66 381 -86 590 -101 1065 -32 969 106 1820 433 2670 138
361 402 717 712 965 227 180 501 315 791 390 184 47 268 53 628 47 437 -7 493
-17 846 -159 205 -83 319 -138 450 -218 162 -100 191 -90 108 37 -153 235
-329 419 -608 634 -419 325 -832 557 -1305 734 -370 138 -643 201 -1049 240
-182 17 -272 17 -547 0z"/>
<path d="M5695 9484 c-404 -47 -823 -216 -1110 -447 -167 -135 -436 -421 -451
-482 -6 -24 4 -42 369 -675 176 -305 235 -400 247 -400 15 0 42 43 180 285 79
138 216 376 305 530 709 1224 681 1175 664 1186 -13 8 -141 10 -204 3z"/>
<path d="M6085 9438 c-15 -20 -71 -109 -123 -199 -293 -505 -462 -806 -462
-821 0 -10 10 -20 23 -23 33 -8 2254 -1 2263 7 42 43 -348 496 -569 660 -245
181 -515 304 -822 373 -66 15 -156 29 -201 32 l-81 6 -28 -35z"/>
<path d="M3982 8313 c-51 -97 -117 -262 -150 -373 -71 -241 -97 -449 -89 -704
8 -272 51 -475 155 -743 l55 -143 620 0 c581 0 619 1 613 17 -8 21 -65 120
-935 1633 -185 321 -215 370 -231 370 -4 0 -21 -26 -38 -57z"/>
<path d="M6858 8233 c-173 -3 -188 -5 -188 -21 0 -21 -11 -2 608 -1072 556
-962 516 -895 532 -895 22 0 125 217 174 365 79 240 109 438 110 705 0 213
-17 357 -65 543 -31 120 -95 295 -129 350 l-20 32 -417 -2 c-230 -2 -502 -4
-605 -5z"/>
<path d="M7043 7043 c-22 -37 -100 -170 -172 -295 -151 -263 -361 -627 -466
-808 -416 -720 -456 -793 -445 -804 12 -12 306 19 423 45 131 29 337 99 461
157 233 111 421 245 617 441 123 124 249 274 249 297 0 5 -133 239 -294 519
-212 367 -300 511 -314 513 -14 2 -29 -14 -59 -65z"/>
<path d="M4093 6173 c-18 -2 -33 -8 -33 -12 0 -4 19 -34 42 -67 313 -441 751
-758 1243 -897 128 -36 237 -57 335 -64 l86 -6 151 264 c83 145 217 378 297
518 80 140 146 258 146 262 0 9 -2201 10 -2267 2z"/>
</g>
</svg>
